<svg version="1.0" xmlns="http://www.w3.org/2000/svg"
 width="512.000000pt" height="512.000000pt" viewBox="0 0 512.000000 512.000000"
 preserveAspectRatio="xMidYMid meet">
<g transform="translate(0.000000,512.000000) scale(0.100000,-0.100000)"
fill="#000000" stroke="#ffffff">
<path d="M2720 2240 l0 -160 160 0 160 0 0 160 0 160 -160 0 -160 0 0 -160z"/>
<path d="M3840 2240 l0 -160 160 0 160 0 0 160 0 160 -160 0 -160 0 0 -160z"/>
<path d="M2560 1760 l0 -160 80 0 80 0 0 -320 0 -320 -80 0 -80 0 0 -160 0
-160 400 0 400 0 0 160 0 160 -160 0 -160 0 0 480 0 480 -240 0 -240 0 0 -160z"/>
<path d="M3680 1760 l0 -160 80 0 80 0 0 -320 0 -320 -80 0 -80 0 0 -160 0
-160 400 0 400 0 0 160 0 160 -160 0 -160 0 0 480 0 480 -240 0 -240 0 0 -160z"/>
</g>
</svg>
